<?xml version="1.0" encoding="UTF-8"?><svg id="a" xmlns="http://www.w3.org/2000/svg"  viewBox="0 0 224.3 266.17"><path d="M134.61,160.13l-16.24,7.06-10.77,14.89-10.77-14.89-16.24-7.06s-28.24,12-18.35,20.47c9.88,8.47,14.47,24.71,19.06,35.65,2.65,6.31,2.53,14.13,1.96,19.62-.7,2.15-1.08,4.43-1.08,6.8,0,12.98,11.37,23.51,25.39,23.51s25.36-10.5,25.38-23.46l.09-.05s-.04-.16-.1-.44c-.04-2.06-.37-4.04-.94-5.94-.61-5.5-.8-13.57,1.91-20.04,4.59-10.94,9.18-27.18,19.06-35.65,9.88-8.47-18.35-20.47-18.35-20.47ZM107.1,219.17l.51-10.39.51,10.4c-.18,0-.37-.01-.55-.01-.16,0-.31,0-.47.01Z" fill="#ff9535" stroke-width="0"/><path d="M53.38,198.21l-16.68,38.7C20.24,211.53,2.5,176.03,2.5,128.89c0-33.53,6.3-56.3,18.59-75.17-1.93,10.27-2.9,21.78-2.9,34.96,0,48.08,18.45,84.05,35.19,109.53Z" fill="#e69254" stroke-width="0"/><path d="M215.79,175.26c-6.45,24.4-17.18,44.44-27.48,60.52l-4.79-13.44c5.99-6.34,11.43-13.19,16.08-20.09,5.32-7.88,10.94-16.86,16.19-26.99Z" fill="#e69254" stroke-width="0"/><path d="M221.8,128.89c0,16.93-2.3,32.37-6.01,46.37-5.25,10.13-10.87,19.11-16.19,26.99-4.65,6.9-10.09,13.75-16.08,20.09l-8.34-23.38-24.72,16.73-19.75-28.73-25.94,60.29-18.53-63.12-21.88,29.47h-.01s-9.17-19.58-9.17-19.58l-1.8,4.19c-16.74-25.48-35.19-61.45-35.19-109.53,0-13.18.97-24.69,2.9-34.96,6.29-9.66,14.13-18.3,23.51-26.84C73.1.92,112.15,2.52,112.15,2.52c0,0,38.97-1.6,67.55,24.36,27.7,25.23,42.1,51.33,42.1,102.01Z" fill="#eb9c63" stroke-width="0"/><path d="M55.18,194.02l9.17,19.57c-3.03-3.71-5.84-7.52-8.42-11.34h.14c-.89-1.32-1.79-2.66-2.69-4.04l1.8-4.19Z" fill="#eb9c63" stroke-width="0"/><path d="M221.8,128.89c0,46.44-17.28,81.59-33.49,106.89l-13.13-36.82-24.72,16.73-19.75-28.73-25.94,60.29-18.53-63.12-21.88,29.49-9.18-19.6-18.48,42.89C20.24,211.53,2.5,176.03,2.5,128.89c0-50.68,14.4-76.78,42.1-102.01C73.1.92,112.15,2.52,112.15,2.52c0,0,38.97-1.6,67.55,24.36,27.7,25.23,42.1,51.33,42.1,102.01Z" fill="none" stroke="#000" stroke-miterlimit="10" stroke-width="5"/><path d="M144.15,107.54c8.73,5.37,20.66,9.05,28.6,5.45,7.94-3.6,13.02-15.01,14.73-25.12,1.71-10.11,2.82-24.15-4.12-39.44-6.94-15.28-14.85-21.19-26.66-25-12.17-3.92-23.71,1.9-23.71,1.9,0,0-12,4.86-17.04,16.59-4.9,11.4-5.67,21.24,1.27,36.53,6.94,15.28,18.22,23.71,26.97,29.07l-.04.02Z" fill="#fff" opacity=".26" stroke-width="0"/><path d="M142.15,100.12c7.7,4.74,18.23,7.99,25.23,4.81,7-3.18,11.49-13.24,12.99-22.16,1.5-8.92,2.48-21.31-3.63-34.79s-13.1-18.69-23.52-22.06c-10.74-3.46-20.91,1.68-20.91,1.68,0,0-10.58,4.29-15.03,14.64-4.32,10.06-5,18.74,1.12,32.22s16.07,20.91,23.79,25.64l-.04.02Z" fill="#fff" opacity=".26" stroke-width="0"/><path d="M161.82,160.91c.3,5.16,2.23,11.15,6.01,13.38s9.96,1.04,14.62-1.17c4.67-2.22,10.78-5.81,15.09-13.09s4.46-12.25,2.62-18.23c-1.9-6.16-7.63-9.24-7.63-9.24,0,0-5.47-3.55-11.77-2.24-6.12,1.27-10.41,3.8-14.71,11.07s-4.52,14.37-4.21,19.53h-.02Z" fill="#fff" opacity=".34" stroke-width="0"/><path d="M178.46,155.06c.15,2.58,1.12,5.58,3.01,6.7s4.98.52,7.32-.59c2.33-1.11,5.4-2.91,7.55-6.55,2.15-3.64,2.23-6.13,1.31-9.12-.95-3.08-3.82-4.62-3.82-4.62,0,0-2.74-1.77-5.89-1.12-3.06.64-5.21,1.9-7.36,5.54s-2.26,7.19-2.11,9.77h-.01Z" fill="#fff" opacity=".34" stroke-width="0"/></svg>