<?xml version="1.0" encoding="UTF-8"?><svg id="a" xmlns="http://www.w3.org/2000/svg" viewBox="0 0 300 326.05"><path d="M250.02,238.68c-7.05,17.16-17.93,30.64-32.47,43.89-28.5,25.96-67.55,24.36-67.55,24.36,0,0-38.97,1.6-67.55-24.36-27.7-25.23-42.1-51.33-42.1-102.01s20.58-87.91,37.89-113.58c6.64-9.85,14.89-19.61,24.03-27.88-13.67,24.03-26.1,55.29-26.1,94.68,0,50.67,14.4,76.78,42.1,102.01,28.57,25.96,67.55,24.36,67.55,24.36,0,0,36.08,1.48,64.2-21.47Z" fill="#e69254" stroke-width="0"/><path d="M259.65,180.56c0,24.07-3.25,42.59-9.63,58.12-28.12,22.95-64.2,21.47-64.2,21.47,0,0-38.98,1.6-67.55-24.36-27.7-25.23-42.1-51.34-42.1-102.01,0-39.39,12.43-70.65,26.1-94.68,14.65-13.3,31.59-22.8,47.8-22.8,26.32,0,54.54,25.02,71.84,50.68h-.14c17.37,25.67,37.88,62.9,37.88,113.58Z" fill="#eb9c63" stroke-width="0"/><path d="M221.91,66.98c-17.31-25.67-45.52-50.68-71.84-50.68s-54.53,25.01-71.84,50.68c-17.31,25.67-37.88,62.89-37.88,113.57s14.4,76.78,42.1,102.01c28.58,25.96,67.55,24.36,67.55,24.36,0,0,39.05,1.6,67.55-24.36,27.7-25.23,42.1-51.33,42.1-102.01s-20.5-87.91-37.88-113.57h.15Z" fill="none" stroke="#000" stroke-miterlimit="10" stroke-width="5"/><path d="M191.97,49.42c-2.93-1.64-6.88-2.68-9.43-1.4s-4.06,5.08-4.48,8.41c-.42,3.33-.6,7.94,1.88,12.84s5.14,6.73,9.05,7.82c4.03,1.12,7.73-.94,7.73-.94,0,0,3.86-1.75,5.35-5.65,1.45-3.79,1.57-7.02-.9-11.93s-6.28-7.51-9.21-9.14h.01Z" fill="#fff" opacity=".51" stroke-width="0"/><path d="M224.5,150.55c-7.21-7.29-17.94-13.69-26.5-12.06-8.57,1.62-16.2,11.5-20.25,20.92-4.05,9.42-8.45,22.8-5.32,39.29,3.12,16.49,9.42,24.1,19.99,30.6,10.9,6.69,23.48,3.76,23.48,3.76,0,0,12.8-1.89,20.48-12.09,7.46-9.92,10.53-19.3,7.41-35.79s-12.09-27.34-19.33-34.62h.05Z" fill="#fff" opacity=".26" stroke-width="0"/><path d="M204.44,128.66c4.64,2.28,10.8,3.56,14.61,1.38s5.82-8.15,6.19-13.3c.38-5.15.27-12.25-3.94-19.59-4.21-7.34-8.46-9.92-14.56-11.28-6.29-1.39-11.8,2.08-11.8,2.08,0,0-5.79,3.01-7.76,9.13-1.92,5.95-1.84,10.93,2.37,18.26s10.26,11.03,14.91,13.3h-.02Z" fill="#fff" opacity=".34" stroke-width="0"/><path d="M207.56,111.31c2.32,1.14,5.4,1.78,7.31.69s2.91-4.08,3.1-6.65c.19-2.58.13-6.13-1.97-9.8s-4.23-4.96-7.28-5.64c-3.15-.69-5.9,1.04-5.9,1.04,0,0-2.89,1.51-3.88,4.57-.96,2.98-.92,5.47,1.19,9.14s5.13,5.52,7.46,6.65h-.01Z" fill="#fff" opacity=".34" stroke-width="0"/><path d="M191.39,50.4c-1.8-1.01-4.24-1.65-5.81-.86s-2.5,3.13-2.76,5.18c-.26,2.05-.37,4.89,1.16,7.91s3.17,4.15,5.58,4.82c2.48.69,4.76-.58,4.76-.58,0,0,2.38-1.08,3.3-3.48.89-2.34.97-4.33-.56-7.35s-3.87-4.63-5.67-5.63h0Z" fill="#fff" opacity=".4" stroke-width="0"/><path d="M224.68,158.23c-6.36-6.43-15.82-12.07-23.38-10.64-7.56,1.43-14.29,10.15-17.87,18.46-3.57,8.31-7.45,20.12-4.7,34.66,2.76,14.55,8.31,21.26,17.63,26.99,9.61,5.9,20.72,3.32,20.72,3.32,0,0,11.3-1.66,18.07-10.67,6.58-8.75,9.29-17.03,6.54-31.57s-10.67-24.12-17.05-30.54h.04Z" fill="#fff" opacity=".26" stroke-width="0"/></svg>