<?xml version="1.0" encoding="UTF-8"?>
<svg id="Layer_1" data-name="Layer 1" xmlns="http://www.w3.org/2000/svg" version="1.1" viewBox="0 0 225.9 297.9">
  <defs>
    <style>
      .cls-1 {
        opacity: .3;
      }

      .cls-1, .cls-2, .cls-3, .cls-4, .cls-5, .cls-6 {
        stroke-width: 0px;
      }

      .cls-1, .cls-3, .cls-4, .cls-6 {
        fill: #fff;
      }

      .cls-2 {
        fill: #adadad;
      }

      .cls-3 {
        opacity: .4;
      }

      .cls-4 {
        opacity: .5;
      }

      .cls-7 {
        fill: none;
        stroke: #000;
        stroke-miterlimit: 10;
        stroke-width: 5px;
      }

      .cls-5 {
        fill: #a4a4a4;
      }

      .cls-6 {
        opacity: .3;
      }
    </style>
  </defs>
  <path class="cls-5" d="M212.6,226.2c-7.1,17.2-17.9,30.6-32.5,43.9-28.5,26-67.5,24.4-67.5,24.4,0,0-39,1.6-67.5-24.4C17.4,244.8,3,218.7,3,168S23.5,80.1,40.9,54.5c6.6-9.8,14.9-19.6,24-27.9-13.7,24-26.1,55.3-26.1,94.7s14.4,76.8,42.1,102c28.6,26,67.5,24.4,67.5,24.4,0,0,36.1,1.5,64.2-21.5Z"/>
  <path class="cls-2" d="M222.3,168c0,24.1-3.2,42.6-9.6,58.1-28.1,23-64.2,21.5-64.2,21.5,0,0-39,1.6-67.5-24.4-27.7-25.2-42.1-51.3-42.1-102s12.4-70.6,26.1-94.7c14.6-13.3,31.6-22.8,47.8-22.8,26.3,0,54.5,25,71.8,50.7h-.1c17.4,25.7,37.9,62.9,37.9,113.6Z"/>
  <path class="cls-7" d="M184.5,54.5C167.2,28.8,139,3.8,112.7,3.8S58.2,28.8,40.8,54.5C23.5,80.1,3,117.4,3,168s14.4,76.8,42.1,102c28.6,26,67.5,24.4,67.5,24.4,0,0,39,1.6,67.5-24.4,27.7-25.2,42.1-51.3,42.1-102s-20.5-87.9-37.9-113.6h.1Z"/>
  <path class="cls-4" d="M154.6,36.9c-2.9-1.6-6.9-2.7-9.4-1.4s-4.1,5.1-4.5,8.4c-.4,3.3-.6,7.9,1.9,12.8s5.1,6.7,9.1,7.8c4,1.1,7.7-.9,7.7-.9,0,0,3.9-1.8,5.3-5.7,1.4-3.8,1.6-7-.9-11.9s-6.3-7.5-9.2-9.1h0Z"/>
  <path class="cls-1" d="M187.1,138c-7.2-7.3-17.9-13.7-26.5-12.1-8.6,1.6-16.2,11.5-20.3,20.9-4,9.4-8.4,22.8-5.3,39.3,3.1,16.5,9.4,24.1,20,30.6,10.9,6.7,23.5,3.8,23.5,3.8,0,0,12.8-1.9,20.5-12.1,7.5-9.9,10.5-19.3,7.4-35.8s-12.1-27.3-19.3-34.6h0Z"/>
  <path class="cls-6" d="M167.1,116.1c4.6,2.3,10.8,3.6,14.6,1.4s5.8-8.1,6.2-13.3c.4-5.2.3-12.2-3.9-19.6-4.2-7.3-8.5-9.9-14.6-11.3-6.3-1.4-11.8,2.1-11.8,2.1,0,0-5.8,3-7.8,9.1-1.9,6-1.8,10.9,2.4,18.3s10.3,11,14.9,13.3h0Z"/>
  <path class="cls-6" d="M170.2,98.8c2.3,1.1,5.4,1.8,7.3.7s2.9-4.1,3.1-6.7c.2-2.6.1-6.1-2-9.8s-4.2-5-7.3-5.6c-3.1-.7-5.9,1-5.9,1,0,0-2.9,1.5-3.9,4.6-1,3-.9,5.5,1.2,9.1s5.1,5.5,7.5,6.7h0Z"/>
  <path class="cls-3" d="M154,37.9c-1.8-1-4.2-1.7-5.8-.9s-2.5,3.1-2.8,5.2c-.3,2.1-.4,4.9,1.2,7.9s3.2,4.1,5.6,4.8c2.5.7,4.8-.6,4.8-.6,0,0,2.4-1.1,3.3-3.5.9-2.3,1-4.3-.6-7.3s-3.9-4.6-5.7-5.6h0Z"/>
  <path class="cls-1" d="M187.3,145.7c-6.4-6.4-15.8-12.1-23.4-10.6-7.6,1.4-14.3,10.1-17.9,18.5-3.6,8.3-7.5,20.1-4.7,34.7,2.8,14.5,8.3,21.3,17.6,27,9.6,5.9,20.7,3.3,20.7,3.3,0,0,11.3-1.7,18.1-10.7,6.6-8.7,9.3-17,6.5-31.6s-10.7-24.1-17.1-30.5h0Z"/>
</svg>